<svg xmlns="http://www.w3.org/2000/svg" xmlns:xlink="http://www.w3.org/1999/xlink" id="Capa_1" x="0px" y="0px" viewBox="0 0 512 512" style="enable-background:new 0 0 512 512;" xml:space="preserve">
<style type="text/css">
	.st0{fill:#444444;}
</style>
<g>
	<path class="st0" d="M7.5,365.9c4.1,0,7.5-3.4,7.5-7.5V154.5h331c4.1,0,7.5-3.4,7.5-7.5s-3.4-7.5-7.5-7.5H15V97   c0-17.9,14.6-32.5,32.5-32.5h40.3c4.1,0,7.5-3.4,7.5-7.5s-3.4-7.5-7.5-7.5H47.5C21.3,49.5,0,70.8,0,97v261.4   C0,362.5,3.4,365.9,7.5,365.9z"></path>
	<path class="st0" d="M464.5,49.5H122.8c-4.1,0-7.5,3.4-7.5,7.5s3.4,7.5,7.5,7.5h341.7c17.9,0,32.5,14.6,32.5,32.5v42.5H381   c-4.1,0-7.5,3.4-7.5,7.5s3.4,7.5,7.5,7.5h116V415c0,17.9-14.6,32.5-32.5,32.5h-417C29.6,447.5,15,432.9,15,415v-21.6   c0-4.1-3.4-7.5-7.5-7.5S0,389.3,0,393.4V415c0,26.2,21.3,47.5,47.5,47.5h417c26.2,0,47.5-21.3,47.5-47.5V97   C512,70.8,490.7,49.5,464.5,49.5z"></path>
	<path class="st0" d="M30.8,101.8c0,12.4,10.1,22.5,22.5,22.5s22.5-10.1,22.5-22.5S65.7,79.3,53.2,79.3S30.8,89.3,30.8,101.8z    M60.8,101.8c0,4.1-3.4,7.5-7.5,7.5s-7.5-3.4-7.5-7.5s3.4-7.5,7.5-7.5S60.8,97.6,60.8,101.8z"></path>
	<path class="st0" d="M117.5,124.5c12.4,0,22.5-10.1,22.5-22.5s-10.1-22.5-22.5-22.5S95,89.6,95,102S105.1,124.5,117.5,124.5z    M117.5,94.5c4.1,0,7.5,3.4,7.5,7.5s-3.4,7.5-7.5,7.5s-7.5-3.4-7.5-7.5S113.4,94.5,117.5,94.5z"></path>
	<path class="st0" d="M204,102c0-12.4-10.1-22.5-22.5-22.5S159,89.6,159,102s10.1,22.5,22.5,22.5S204,114.4,204,102z M174,102   c0-4.1,3.4-7.5,7.5-7.5s7.5,3.4,7.5,7.5s-3.4,7.5-7.5,7.5S174,106.1,174,102z"></path>
	<path class="st0" d="M482,102c0-12.4-10.1-22.5-22.5-22.5h-213c-12.4,0-22.5,10.1-22.5,22.5s10.1,22.5,22.5,22.5h213   C471.9,124.5,482,114.4,482,102z M239,102c0-4.1,3.4-7.5,7.5-7.5h213c4.1,0,7.5,3.4,7.5,7.5s-3.4,7.5-7.5,7.5h-213   C242.4,109.5,239,106.1,239,102z"></path>
	<path class="st0" d="M371.1,323.7c3.1-1,5.2-3.9,5.2-7.1v-31.4c0-3.3-2.1-6.2-5.2-7.1l-20.2-6.4c-1.8-6-4.2-11.8-7.2-17.3l9.7-18.8   c1.5-2.9,0.9-6.4-1.4-8.7l-22.2-22.2c-2.3-2.3-5.8-2.9-8.7-1.4l-18.8,9.7c-3.9-2.1-7.9-3.9-12.1-5.4l-8.2-22.2   c-1.1-3-3.9-4.9-7-4.9h-38.5c-3.1,0-6,2-7,4.9l-8.1,22.1c-4,1.4-8.5,3.4-12.3,5.5l-18.7-9.6c-2.9-1.5-6.4-0.9-8.7,1.4l-22.2,22.2   c-2.3,2.3-2.9,5.8-1.4,8.7l9.7,18.8c-2.9,5.5-5.3,11.3-7.2,17.3l-20.2,6.4c-3.1,1-5.2,3.9-5.2,7.1v31.4c0,3.3,2.1,6.2,5.2,7.1   l20.2,6.4c1.8,6,4.2,11.8,7.2,17.3l-9.7,18.8c-1.5,2.9-0.9,6.4,1.4,8.7l22.2,22.2c2.3,2.3,5.8,2.9,8.7,1.4l18.8-9.7   c5.5,2.9,11.3,5.3,17.3,7.2l6.4,20.2c1,3.1,3.9,5.2,7.1,5.2h31.4c3.3,0,6.2-2.1,7.1-5.2l6.4-20.2c6-1.8,11.8-4.2,17.3-7.2l18.8,9.7   c2.9,1.5,6.4,0.9,8.7-1.4l22.2-22.2c2.3-2.3,2.9-5.8,1.4-8.7l-9.7-18.8c2.9-5.5,5.3-11.3,7.2-17.3L371.1,323.7z M342.5,317.1   c-2.4,0.8-4.3,2.8-5,5.2c-1.9,7.4-4.9,14.5-8.8,21.2c-1.3,2.2-1.4,4.9-0.2,7.2l9,17.5l-14.4,14.4l-17.5-9c-2.3-1.2-5-1.1-7.2,0.2   c-6.6,3.9-13.8,6.8-21.2,8.8c-2.5,0.6-4.5,2.5-5.2,5l-6,18.8h-20.4l-6-18.8c-0.8-2.4-2.8-4.3-5.2-5c-7.4-1.9-14.5-4.9-21.2-8.8   c-2.2-1.3-4.9-1.4-7.2-0.2l-17.5,9L174,368.3l9-17.5c1.2-2.3,1.1-5-0.2-7.2c-3.9-6.6-6.8-13.8-8.8-21.2c-0.6-2.5-2.5-4.5-5-5.2   l-18.8-6v-20.4l18.8-6c2.4-0.8,4.3-2.8,5-5.2c1.9-7.4,4.9-14.5,8.8-21.2c1.3-2.2,1.4-4.9,0.2-7.2l-9-17.5l14.4-14.4l17.5,9   c2.4,1.3,5.3,1.1,7.6-0.4c3.6-2.4,10.9-5.7,15.6-7c2.3-0.6,4.2-2.4,5-4.6l7.6-20.6h28.1l7.6,20.6c0.8,2.2,2.5,3.8,4.7,4.5   c5.7,1.9,11.2,4.3,16.3,7.3c2.2,1.3,4.9,1.4,7.2,0.2l17.5-9l14.4,14.4l-9,17.5c-1.2,2.3-1.1,5,0.2,7.2c3.9,6.6,6.8,13.8,8.8,21.2   c0.6,2.5,2.5,4.5,5,5.2l18.8,6v20.4L342.5,317.1z"></path>
	<path class="st0" d="M255.5,244c-31.2,0-56.5,25.3-56.5,56.5s25.3,56.5,56.5,56.5c7.2,0,14.3-1.4,21-4c3.8-1.5,5.7-5.9,4.2-9.8   c-1.5-3.8-5.9-5.7-9.8-4.2c-4.9,2-10.1,3-15.4,3c-22.9,0-41.5-18.6-41.5-41.5s18.6-41.5,41.5-41.5s41.5,18.6,41.5,41.5   c0,6.5-1.4,12.7-4.3,18.4c-1.8,3.7-0.3,8.2,3.4,10.1c3.7,1.8,8.2,0.3,10.1-3.4c3.9-7.8,5.9-16.3,5.9-25.1   C312,269.3,286.7,244,255.5,244L255.5,244z"></path>
</g>
</svg>