<?xml version="1.0" encoding="utf-8"?>
<!-- Generator: Adobe Illustrator 25.2.2, SVG Export Plug-In . SVG Version: 6.00 Build 0)  -->
<svg version="1.1" id="Calque_1" xmlns="http://www.w3.org/2000/svg" xmlns:xlink="http://www.w3.org/1999/xlink" x="0px" y="0px"
	 viewBox="0 0 470 470" style="enable-background:new 0 0 470 470;" xml:space="preserve">
<style type="text/css">
	.st0{fill:#FFFFFF;}
</style>
<g>
	<path class="st0" d="M16.1,219.4h50.8l18.3,36.5c1.3,2.5,3.9,4.1,6.7,4.1s5.4-1.6,6.7-4.1l18.3-36.5h3.7c4.1,0,7.5-3.4,7.5-7.5
		s-3.4-7.5-7.5-7.5h-8.4c-2.8,0-5.4,1.6-6.7,4.1l-13.6,27.2l-13.6-27.2c-1.3-2.5-3.9-4.1-6.7-4.1H16.1c-0.6,0-1.1-0.5-1.1-1.1V16.1
		c0-0.6,0.5-1.1,1.1-1.1h151.6c0.6,0,1.1,0.5,1.1,1.1v81.3c0,4.1,3.4,7.5,7.5,7.5s7.5-3.4,7.5-7.5V16.1c0-8.9-7.2-16.1-16.1-16.1
		H16.1C7.2,0,0,7.2,0,16.1v187.2C0,212.2,7.2,219.4,16.1,219.4z"/>
	<path class="st0" d="M91.9,30c-20.7,0-37.5,16.8-37.5,37.5S71.2,105,91.9,105s37.5-16.8,37.5-37.5S112.6,30,91.9,30z M91.9,90
		c-12.4,0-22.5-10.1-22.5-22.5C69.4,55.1,79.5,45,91.9,45s22.5,10.1,22.5,22.5C114.4,79.9,104.3,90,91.9,90z"/>
	<path class="st0" d="M91.9,135c8.8,0,17.4,2.5,24.8,7.1c3.5,2.2,8.1,1.1,10.3-2.4s1.1-8.1-2.4-10.3c-9.8-6.1-21.2-9.4-32.8-9.4
		C57.8,120,30,147.8,30,181.9c0,4.1,3.4,7.5,7.5,7.5h83.1c4.1,0,7.5-3.4,7.5-7.5s-3.4-7.5-7.5-7.5h-75C49.2,152.1,68.6,135,91.9,135
		L91.9,135z"/>
	<path class="st0" d="M453.9,0H302.3c-8.9,0-16.1,7.2-16.1,16.1v81.3c0,4.1,3.4,7.5,7.5,7.5s7.5-3.4,7.5-7.5V16.1
		c0-0.6,0.5-1.1,1.1-1.1h151.6c0.6,0,1.1,0.5,1.1,1.1v187.2c0,0.6-0.5,1.1-1.1,1.1h-55.5c-2.8,0-5.4,1.6-6.7,4.1l-13.6,27.2
		l-13.6-27.2c-1.3-2.5-3.9-4.1-6.7-4.1h-8.4c-4.1,0-7.5,3.4-7.5,7.5s3.4,7.5,7.5,7.5h3.7l18.3,36.5c1.3,2.5,3.9,4.1,6.7,4.1
		s5.4-1.6,6.7-4.1l18.3-36.5h50.8c8.9,0,16.1-7.2,16.1-16.1V16.1C470,7.2,462.8,0,453.9,0z"/>
	<path class="st0" d="M378.1,30c-20.7,0-37.5,16.8-37.5,37.5s16.8,37.5,37.5,37.5s37.5-16.8,37.5-37.5S398.8,30,378.1,30z M378.1,90
		c-12.4,0-22.5-10.1-22.5-22.5c0-12.4,10.1-22.5,22.5-22.5c12.4,0,22.5,10.1,22.5,22.5C400.6,79.9,390.5,90,378.1,90z"/>
	<path class="st0" d="M341.9,181.9c0,4.1,3.4,7.5,7.5,7.5h83.1c4.1,0,7.5-3.4,7.5-7.5c0-34.1-27.8-61.9-61.9-61.9
		c-11.6,0-23,3.2-32.8,9.4c-3.5,2.2-4.6,6.8-2.4,10.3c2.2,3.5,6.8,4.6,10.3,2.4c7.4-4.7,16-7.1,24.8-7.1c23.3,0,42.7,17.1,46.3,39.4
		h-75C345.3,174.4,341.9,177.8,341.9,181.9L341.9,181.9z"/>
	<path class="st0" d="M143.1,136v187.2c0,8.9,7.2,16.1,16.1,16.1H210l18.3,36.5c1.3,2.5,3.9,4.1,6.7,4.1c2.8,0,5.4-1.6,6.7-4.1
		l18.3-36.5h50.8c8.9,0,16.1-7.2,16.1-16.1V136c0-8.9-7.2-16.1-16.1-16.1H159.2C150.3,119.9,143.1,127.1,143.1,136z M311.9,136
		v187.2c0,0.6-0.5,1.1-1.1,1.1h-55.5c-2.8,0-5.4,1.6-6.7,4.1L235,355.7l-13.6-27.2c-1.3-2.5-3.9-4.1-6.7-4.1h-55.5
		c-0.6,0-1.1-0.5-1.1-1.1V136c0-0.6,0.5-1.1,1.1-1.1h151.6C311.4,134.9,311.9,135.4,311.9,136L311.9,136z"/>
	<path class="st0" d="M235,224.9c20.7,0,37.5-16.8,37.5-37.5s-16.8-37.5-37.5-37.5s-37.5,16.8-37.5,37.5S214.3,224.9,235,224.9z
		 M235,164.9c12.4,0,22.5,10.1,22.5,22.5c0,12.4-10.1,22.5-22.5,22.5c-12.4,0-22.5-10.1-22.5-22.5C212.5,175,222.6,164.9,235,164.9z
		"/>
	<path class="st0" d="M180.6,309.3h108.8c4.1,0,7.5-3.4,7.5-7.5c0-34.1-27.8-61.9-61.9-61.9s-61.9,27.8-61.9,61.9
		C173.1,306,176.4,309.3,180.6,309.3L180.6,309.3z M235,254.9c23.3,0,42.7,17.1,46.3,39.4h-92.6C192.3,272,211.7,254.9,235,254.9
		L235,254.9z"/>
</g>
</svg>
