<?xml version="1.0" encoding="utf-8"?>
<!-- Generator: Adobe Illustrator 25.2.2, SVG Export Plug-In . SVG Version: 6.00 Build 0)  -->
<svg version="1.1" id="Calque_1" xmlns="http://www.w3.org/2000/svg" xmlns:xlink="http://www.w3.org/1999/xlink" x="0px" y="0px"
	 viewBox="0 0 470 470" style="enable-background:new 0 0 470 470;" xml:space="preserve">
<style type="text/css">
	.st0{fill:#FFFFFF;}
</style>
<g>
	<path class="st0" d="M257.6,360.5h-45c-4.1,0-7.5,3.4-7.5,7.5s3.4,7.5,7.5,7.5h45c4.1,0,7.5-3.4,7.5-7.5S261.7,360.5,257.6,360.5z"
		/>
	<path class="st0" d="M470,397.3c0-0.3-0.1-0.6-0.1-0.9c0-0.1,0-0.1-0.1-0.2c-0.1-0.2-0.1-0.5-0.2-0.7c0-0.1,0-0.1-0.1-0.2
		c-0.1-0.3-0.2-0.5-0.3-0.8c0,0,0,0,0-0.1c0-0.1-41.6-78.4-41.6-78.4V111.9c0-4.1-3.4-7.5-7.5-7.5s-7.5,3.4-7.5,7.5v198.6h-355V99.5
		C57.5,87.1,67.6,77,80,77h297.6c4.1,0,7.5-3.4,7.5-7.5s-3.4-7.5-7.5-7.5H80c-20.7,0-37.5,16.8-37.5,37.5v216.7L0.9,394.4
		c0,0.1-0.1,0.1-0.1,0.1c-0.1,0.2-0.2,0.5-0.3,0.8c0,0.1-0.1,0.1-0.1,0.2c-0.1,0.2-0.1,0.4-0.2,0.7c0,0.1,0,0.1,0,0.2
		c-0.1,0.3-0.1,0.6-0.1,0.9c0,0.3,0,0.5,0,0.8v15c0,20.7,16.8,37.5,37.5,37.5h395c20.7,0,37.5-16.8,37.5-37.5v-15
		C470,397.8,470,397.5,470,397.3L470,397.3z M54.5,325.5h361l34.5,65H20C20,390.5,54.5,325.5,54.5,325.5z M432.5,435.5h-395
		C25.1,435.5,15,425.4,15,413v-7.5h440v7.5C455,425.4,444.9,435.5,432.5,435.5z"/>
	<path class="st0" d="M422.5,34.5h21.9l-179,179L210,158.1c-2.9-2.9-7.7-2.9-10.6,0L74.7,282.7c-2.9,2.9-2.9,7.7,0,10.6
		c1.5,1.5,3.4,2.2,5.3,2.2s3.8-0.7,5.3-2.2L204.7,174l55.4,55.4c2.9,2.9,7.7,2.9,10.6,0L455,45.1V67c0,4.1,3.4,7.5,7.5,7.5
		s7.5-3.4,7.5-7.5V27c0-4.1-3.4-7.5-7.5-7.5h-40c-4.1,0-7.5,3.4-7.5,7.5S418.4,34.5,422.5,34.5L422.5,34.5z"/>
</g>
</svg>
