<svg xmlns="http://www.w3.org/2000/svg" xmlns:xlink="http://www.w3.org/1999/xlink" id="Calque_1" x="0px" y="0px" viewBox="0 0 470 470" style="enable-background:new 0 0 470 470;" xml:space="preserve">
<style type="text/css">
	.st0{fill:#444444;}
</style>
<g>
	<path class="st0" d="M429.6,418.4l-62.2-150.2c-1.6-3.8-6-5.6-9.8-4.1s-5.6,6-4.1,9.8l56.3,135.8l-51.3-14.9c-3.4-1-7,0.5-8.7,3.6   L324,445.2l-60.4-145.7c69.7-13.4,122.4-74.9,122.4-148.4C386.1,67.8,318.3,0,235,0S83.9,67.8,83.9,151.1c0,33.8,11.1,65,29.9,90.1   L40.4,418.4c-1.1,2.7-0.6,5.7,1.3,7.9c1.9,2.1,4.9,3,7.7,2.2l60.5-17.5l30.4,55.2c1.3,2.4,3.8,3.9,6.6,3.9c0.1,0,0.3,0,0.4,0   c2.9-0.2,5.4-2,6.5-4.6L212,325c1.6-3.8-0.2-8.2-4.1-9.8c-3.8-1.6-8.2,0.2-9.8,4.1L146,445.2l-25.8-46.8c-1.7-3.1-5.3-4.6-8.7-3.6   l-51.3,14.9l64.4-155.5c27.6,29.5,66.9,48,110.4,48c4.5,0,8.9-0.2,13.3-0.6l67.8,163.7c1.1,2.7,3.6,4.5,6.5,4.6c0.1,0,0.3,0,0.4,0   c2.7,0,5.2-1.5,6.6-3.9l30.4-55.2l60.5,17.5c2.8,0.8,5.8-0.1,7.7-2.2S430.7,421,429.6,418.4L429.6,418.4z M98.9,151.1   C98.9,76.1,159.9,15,235,15s136.1,61.1,136.1,136.1S310.1,287.2,235,287.2S98.9,226.2,98.9,151.1L98.9,151.1z"></path>
	<path class="st0" d="M321.7,123c-0.9-2.7-3.1-4.6-5.9-5.1l-50.5-8.5L241.7,64c-1.3-2.5-3.9-4-6.7-4c-2.8,0-5.4,1.6-6.7,4   l-23.6,45.4l-50.5,8.5c-2.8,0.5-5,2.4-5.9,5.1c-0.9,2.7-0.2,5.6,1.8,7.6L186,167l-7.5,50.6c-0.4,2.8,0.7,5.5,3,7.2   c2.3,1.6,5.2,1.9,7.8,0.6l45.8-22.8l45.8,22.8c1.1,0.5,2.2,0.8,3.3,0.8c1.6,0,3.1-0.5,4.4-1.4c2.3-1.6,3.4-4.4,3-7.2L284,167   l35.9-36.5C321.8,128.5,322.5,125.6,321.7,123z M270.7,159.2c-1.6,1.7-2.4,4-2.1,6.4l6,40.1l-36.3-18.1c-1.1-0.5-2.2-0.8-3.3-0.8   c-1.1,0-2.3,0.3-3.3,0.8l-36.3,18.1l6-40.1c0.3-2.3-0.4-4.7-2.1-6.4l-28.4-28.9l40-6.7c2.3-0.4,4.3-1.8,5.4-3.9L235,83.7l18.7,35.9   c1.1,2.1,3.1,3.5,5.4,3.9l40,6.7L270.7,159.2L270.7,159.2z"></path>
	<path class="st0" d="M348.6,158.7c-4.1-0.5-7.9,2.3-8.4,6.4c-7,52.5-52.2,92.1-105.2,92.1c-58.5,0-106.1-47.6-106.1-106.1   S176.5,45,235,45c53,0,98.2,39.6,105.2,92.1c0.5,4.1,4.3,7,8.4,6.4c4.1-0.5,7-4.3,6.4-8.4C347.1,75.2,295.5,30,235,30   c-66.8,0-121.1,54.3-121.1,121.1S168.2,272.2,235,272.2c60.5,0,112.1-45.2,120.1-105.1C355.6,163,352.7,159.2,348.6,158.7   L348.6,158.7z"></path>
</g>
</svg>