<svg xmlns="http://www.w3.org/2000/svg" xmlns:xlink="http://www.w3.org/1999/xlink" id="Calque_1" x="0px" y="0px" viewBox="0 0 470 470" style="enable-background:new 0 0 470 470;" xml:space="preserve">
<style type="text/css">
	.st0{fill:#444444;}
</style>
<path class="st0" d="M469.2,46.5c-1.5-2.9-4.6-4.5-7.8-4l-40,6.2l6.2-40c0.5-3.2-1.1-6.4-4-7.8c-2.9-1.5-6.4-0.9-8.7,1.4l-46.5,46.5  c-1.1,1.1-1.9,2.6-2.1,4.2l-7.4,47.7l-26.6,26.6c-36.7-34-84.1-52.7-134.5-52.7c-52.9,0-102.5,20.6-139.9,57.9  C20.6,169.7,0,219.4,0,272.2s20.6,102.5,57.9,139.9c37.3,37.3,87,57.9,139.9,57.9s102.5-20.6,139.9-57.9  c37.3-37.3,57.9-87,57.9-139.9c0-42.1-13-82.2-37.6-116.1c-2.4-3.4-7.1-4.1-10.5-1.7c-3.4,2.4-4.1,7.1-1.7,10.5  c22.7,31.3,34.7,68.4,34.7,107.3c0,100.8-82,182.8-182.8,182.8S15,373,15,272.2S97,89.5,197.8,89.5c46.3,0,90,17.1,123.8,48.3  l-34.3,34.3c-24.7-22.1-56.2-34.2-89.6-34.2c-74.1,0-134.3,60.3-134.3,134.3s60.3,134.3,134.3,134.3s134.3-60.3,134.3-134.3  c0-24.7-6.8-48.9-19.5-69.9c-2.2-3.5-6.8-4.7-10.3-2.5c-3.5,2.2-4.7,6.8-2.5,10.3c11.4,18.6,17.4,40.1,17.4,62.1  c0,65.8-53.5,119.3-119.3,119.3c-65.8,0-119.3-53.5-119.3-119.3s53.5-119.3,119.3-119.3c29.3,0,57.1,10.5,78.9,29.8l-34.4,34.4  c-12.6-10.2-28.1-15.7-44.6-15.7c-39.1,0-70.9,31.8-70.9,70.9s31.8,70.9,70.9,70.9c39.1,0,70.9-31.8,70.9-70.9c0-7-1-13.9-3-20.5  c-1.2-4-5.4-6.2-9.3-5c-4,1.2-6.2,5.4-5,9.3c1.6,5.2,2.4,10.6,2.4,16.2c0,30.8-25.1,55.9-55.9,55.9s-55.9-25.1-55.9-55.9  c0-30.8,25.1-55.9,55.9-55.9c12.4,0,24.2,4,33.9,11.4l-39.2,39.2c-2.9,2.9-2.9,7.7,0,10.6c1.5,1.5,3.4,2.2,5.3,2.2  c1.9,0,3.8-0.7,5.3-2.2L337.6,143c0,0,31.8-31.8,31.8-31.8l47.7-7.4c1.6-0.2,3-1,4.2-2.1l46.5-46.5  C470.1,52.9,470.7,49.4,469.2,46.5L469.2,46.5z M380.6,57.6L409.2,29l-3.9,25.1l-28.5,28.5L380.6,57.6z M412.4,89.4l-25.1,3.9  l28.5-28.5l25.1-3.9L412.4,89.4z"></path>
</svg>