<svg xmlns="http://www.w3.org/2000/svg" xmlns:xlink="http://www.w3.org/1999/xlink" id="Capa_1" x="0px" y="0px" viewBox="0 0 512 512" style="enable-background:new 0 0 512 512;" xml:space="preserve">
<style type="text/css">
	.st0{fill:#444444;}
</style>
<g>
	<g>
		<path class="st0" d="M440.8,454.8c-4.1,0-7.5,3.4-7.5,7.5v9.6c0,13.9-11.3,25.2-25.2,25.2h-18.5v-34.7c0-4.1-3.4-7.5-7.5-7.5    s-7.5,3.4-7.5,7.5V497h-66.2c12.8-60.7,14-122.5,3.4-183.7c2,0.7-0.6-0.1,29.7,7.7c0.1,0,0.3,0.1,0.4,0.1    c51.9,10,89.3,54.5,91.2,106.2c0.2,4,3.5,7.2,7.5,7.2c0.1,0,0.2,0,0.3,0c4.1-0.2,7.4-3.6,7.2-7.8c-2.2-59.1-45-109.1-103.1-120.4    c-11.9-3.1-25.5-6.6-26.7-6.8c-4.8-1.1-8.6-4.4-10.4-8.6l32.9-11.1c24.9-8.4,41.7-31.7,41.7-58c0-0.1,0-25.2,0-28.5    c5.5-4.5,9-11.3,9-19v-33.5c0-7.7-3.6-14.6-9.2-19C380,54.1,324.4,0,256,0c-68.4,0-124,54.1-126.3,121.9c-5.6,4.5-9.2,11.4-9.2,19    v33.5c0,7.6,3.5,14.5,9,19l0,28.5c0,26.3,16.7,49.6,41.7,58l32.9,11.1c-1.9,4.3-5.6,7.5-10.4,8.6c-1.1,0.3-11.5,2.9-26.7,6.8    c-13.1,2.5-25.6,7.1-37.2,13.4c-3.6,2-5,6.6-3,10.2c2,3.6,6.6,5,10.2,3c10.3-5.7,21.4-9.7,33-11.9c0.1,0,27.3-6.8,30.2-7.8    c-10.6,61.3-9.5,123,3.4,183.7h-66.2v-34.7c0-4.1-3.4-7.5-7.5-7.5s-7.5,3.4-7.5,7.5V497h-18.5c-13.9,0-25.2-11.3-25.2-25.2v-40.2    c0-29.6,11.4-57.6,32.2-78.8c2.9-3,2.8-7.7-0.1-10.6c-3-2.9-7.7-2.8-10.6,0.1c-23.5,24-36.4,55.7-36.4,89.3v40.2    c0,22.1,18,40.2,40.2,40.2h304.3c22.1,0,40.2-18,40.2-40.2v-9.6C448.3,458.1,444.9,454.8,440.8,454.8L440.8,454.8z M350,226.4    h-16.3c5.5-8.5,9.5-17.8,12-27.5c9.4,0,20.7,0,21.9,0l0,10.1C367.4,218.6,359.6,226.4,350,226.4z M376.5,140.9v33.5    c0,5.2-4.2,9.4-9.4,9.4h-19c0.2-2,0.3-4,0.3-6c0,0,0-0.1,0-0.1v-46.2h18.7C372.3,131.5,376.5,135.7,376.5,140.9z M256,15    c58,0,105.9,44.7,111,101.5h-24.3c-21.1-11.3-30.5-29.1-34.7-42.1c-3.2-10-16.8-11.3-21.9-2.1c-15.9,28.5-48.1,44.3-90.8,44.3    c-15,0-31.7,0-50.2,0C150.1,59.7,198,15,256,15L256,15z M293.3,294.8l3.3,18.3c1.8,9.8,3.2,19.7,4.4,29.5    c-28.3,12.8-61.3,13-89.9,0c1.1-9.9,2.6-19.7,4.4-29.5l3.3-18.3c2.9-8.4,1.3-18,1.6-33.1c22.1,9.3,48,9.8,71.3,0    C292,275.8,290.4,286.4,293.3,294.8z M290.9,239.2c-3.7,0-6.7-3-6.7-6.7s3-6.7,6.7-6.7h20.5c3.7,0,6.7,3,6.7,6.7    c0,3.7-3,6.7-6.7,6.7C305.3,239.2,297.7,239.2,290.9,239.2z M311.4,210.9h-20.5c-11.9,0-21.7,9.7-21.7,21.7    c0,7.4,3.7,13.9,9.4,17.9c-26.1,8-55.9,1.8-76.9-18.9c-11.6-11.4-19.1-25.8-21.8-41.5c0-0.1,0-0.1,0-0.2    c-2-11.6-0.8-16.1-1.2-58.3h16.6c45.7,0,81.1-16.5,100.6-46.5c5.2,12.9,15.9,31.1,37.4,43.5c-0.3,45.2,0.8,49.9-1.1,61.2    c-1,4.1-2.2,13-8.9,24.8C319.9,212.2,315.8,210.9,311.4,210.9L311.4,210.9z M135.5,174.4v-33.5c0-5.2,4.2-9.4,9.4-9.4h18.7v46.2    c0,0,0,0.1,0,0.1c0,2,0.1,4,0.3,6h-19C139.7,183.9,135.5,179.6,135.5,174.4L135.5,174.4z M205.3,275.6l-29.4-9.9    c-18.8-6.3-31.4-23.9-31.4-43.8l0-23.1c1.2,0,8.2,0,21.9,0c4.1,16.3,12.5,31.2,24.7,43.3c4.4,4.3,9.1,8.2,14.2,11.5L205.3,275.6    L205.3,275.6z M293.2,497h-74.3c-10-45.9-13.1-92.3-9.3-138.7c29,11.7,62.7,12.2,93,0C306.3,404.7,303.2,451.1,293.2,497z     M306.7,254.2h4.7c8.8,0,16.4-5.3,19.8-12.8H350c5.3,0,10.3-1.3,14.7-3.5c-4.7,12.9-15.1,23.2-28.6,27.8l-29.4,9.9L306.7,254.2    L306.7,254.2z"></path>
		<path class="st0" d="M387.4,384.6h-30.3c-11.7,0-21.3,9.5-21.3,21.3v8.3c0,11.7,9.5,21.3,21.3,21.3h30.3    c11.7,0,21.3-9.5,21.3-21.3v-8.3C408.7,394.1,399.1,384.6,387.4,384.6z M393.7,414.1c0,3.5-2.8,6.3-6.3,6.3h-30.3    c-3.5,0-6.3-2.8-6.3-6.3v-8.3c0-3.5,2.8-6.3,6.3-6.3h30.3c3.5,0,6.3,2.8,6.3,6.3V414.1z"></path>
	</g>
</g>
</svg>