<?xml version="1.0" encoding="utf-8"?>
<!-- Generator: Adobe Illustrator 25.2.2, SVG Export Plug-In . SVG Version: 6.00 Build 0)  -->
<svg version="1.1" id="Calque_1" xmlns="http://www.w3.org/2000/svg" xmlns:xlink="http://www.w3.org/1999/xlink" x="0px" y="0px"
	 viewBox="0 0 470 470" style="enable-background:new 0 0 470 470;" xml:space="preserve">
<style type="text/css">
	.st0{fill:#FFFFFF;}
</style>
<g>
	<path class="st0" d="M337.2,228.6c20.7,0,37.5-16.8,37.5-37.5s-16.8-37.5-37.5-37.5s-37.5,16.8-37.5,37.5S316.5,228.6,337.2,228.6z
		 M337.2,168.6c12.4,0,22.5,10.1,22.5,22.5c0,12.4-10.1,22.5-22.5,22.5c-12.4,0-22.5-10.1-22.5-22.5S324.8,168.6,337.2,168.6z"/>
	<path class="st0" d="M337.2,243.6c-10.2,0-20.3,2.5-29.2,7.3c-3.6,2-5,6.5-3.1,10.2c2,3.6,6.5,5,10.2,3.1
		c6.7-3.6,14.4-5.5,22.1-5.5c23.3,0,42.7,17.1,46.3,39.4h-46.3c-4.1,0-7.5,3.4-7.5,7.5s3.4,7.5,7.5,7.5h54.4c4.1,0,7.5-3.4,7.5-7.5
		C399.1,271.4,371.4,243.6,337.2,243.6L337.2,243.6z"/>
	<path class="st0" d="M133.4,298h-47c3.6-22.3,23-39.4,46.3-39.4c7.7,0,15.4,1.9,22.1,5.5c3.6,2,8.2,0.6,10.2-3.1
		c2-3.6,0.6-8.2-3.1-10.2c-8.9-4.8-19-7.3-29.2-7.3c-34.1,0-61.9,27.8-61.9,61.9c0,4.1,3.4,7.5,7.5,7.5h55.1c4.1,0,7.5-3.4,7.5-7.5
		S137.6,298,133.4,298z"/>
	<path class="st0" d="M132.8,228.6c20.7,0,37.5-16.8,37.5-37.5s-16.8-37.5-37.5-37.5s-37.5,16.8-37.5,37.5S112.1,228.6,132.8,228.6z
		 M132.8,168.6c12.4,0,22.5,10.1,22.5,22.5c0,12.4-10.1,22.5-22.5,22.5c-12.4,0-22.5-10.1-22.5-22.5
		C110.3,178.7,120.4,168.6,132.8,168.6z"/>
	<path class="st0" d="M235,231.3c26.6,0,48.3-21.7,48.3-48.3s-21.7-48.3-48.3-48.3s-48.3,21.7-48.3,48.3S208.4,231.3,235,231.3z
		 M235,149.7c18.4,0,33.3,14.9,33.3,33.3s-14.9,33.3-33.3,33.3s-33.3-14.9-33.3-33.3S216.6,149.7,235,149.7z"/>
	<path class="st0" d="M235,246.3c-44.9,0-81.5,36.5-81.5,81.5c0,4.1,3.4,7.5,7.5,7.5H309c4.1,0,7.5-3.4,7.5-7.5
		C316.5,282.9,279.9,246.3,235,246.3L235,246.3z M169,320.3c3.7-33.1,31.9-59,66-59s62.3,25.8,66,59H169L169,320.3z"/>
	<path class="st0" d="M462.5,227.5h-18.2C440.4,118,352,29.6,242.5,25.7V7.5c0-4.1-3.4-7.5-7.5-7.5s-7.5,3.4-7.5,7.5v18.2
		C118,29.6,29.6,118,25.7,227.5H7.5c-4.1,0-7.5,3.4-7.5,7.5s3.4,7.5,7.5,7.5h18.2C29.6,352,118,440.4,227.5,444.3v18.2
		c0,4.1,3.4,7.5,7.5,7.5s7.5-3.4,7.5-7.5v-18.2C352,440.4,440.4,352,444.3,242.5h18.2c4.1,0,7.5-3.4,7.5-7.5
		S466.6,227.5,462.5,227.5z M242.5,429.3v-17.9c0-4.1-3.4-7.5-7.5-7.5s-7.5,3.4-7.5,7.5v17.9c-101.3-3.9-182.9-85.5-186.8-186.8
		h17.9c4.1,0,7.5-3.4,7.5-7.5s-3.4-7.5-7.5-7.5H40.7c3.9-101.3,85.5-182.9,186.8-186.8v17.9c0,4.1,3.4,7.5,7.5,7.5s7.5-3.4,7.5-7.5
		V40.7c101.3,3.9,182.9,85.5,186.8,186.8h-17.9c-4.1,0-7.5,3.4-7.5,7.5s3.4,7.5,7.5,7.5h17.9C425.4,343.8,343.8,425.4,242.5,429.3z"
		/>
</g>
</svg>
